<svg width="58" height="24" viewBox="0 0 58 24" fill="none" xmlns="http://www.w3.org/2000/svg">
<path d="M11.8596 24C10.1951 24 8.64499 23.6983 7.20936 23.0949C5.77373 22.4915 4.51495 21.6489 3.43303 20.567C2.35111 19.485 1.50845 18.2159 0.905072 16.7594C0.301691 15.303 0 13.7113 0 11.9844C0 10.2575 0.291287 8.6658 0.873862 7.20936C1.45644 5.73212 2.27828 4.46294 3.3394 3.40182C4.40052 2.3199 5.63849 1.48765 7.05332 0.905071C8.48895 0.30169 10.0494 0 11.7347 0C13.42 0 14.9285 0.280884 16.2601 0.842653C17.6125 1.40442 18.7568 2.15345 19.6931 3.08973C20.6294 4.02601 21.2952 5.06632 21.6905 6.21066L17.4148 8.27048C17.0195 7.14695 16.3225 6.22107 15.3238 5.49285C14.3459 4.74382 13.1495 4.36931 11.7347 4.36931C10.3615 4.36931 9.15475 4.69181 8.11444 5.3368C7.07412 5.98179 6.26268 6.87646 5.6801 8.02081C5.11834 9.14434 4.83745 10.4655 4.83745 11.9844C4.83745 13.5033 5.13914 14.8349 5.74252 15.9792C6.3459 17.1235 7.16775 18.0182 8.20806 18.6632C9.26918 19.3082 10.4863 19.6307 11.8596 19.6307C12.9207 19.6307 13.909 19.433 14.8244 19.0377C15.7607 18.6216 16.5098 18.0286 17.0715 17.2588C17.6541 16.4889 17.9454 15.5631 17.9454 14.4811V12.5462L20.1613 14.4187H11.7347V10.3615H22.7828V12.827C22.7828 14.7204 22.4707 16.3745 21.8466 17.7893C21.2224 19.1834 20.3797 20.3485 19.3186 21.2848C18.2783 22.2003 17.1027 22.8869 15.7919 23.3446C14.502 23.7815 13.1912 24 11.8596 24Z" fill="black"/>
<path d="M23.3668 23.6255V6.58518H27.7361V10.6736L27.424 10.0806C27.7985 8.64499 28.4123 7.6775 29.2654 7.17815C30.1392 6.658 31.1691 6.39792 32.3551 6.39792H33.3538V10.4551H31.8869C30.7426 10.4551 29.8167 10.8088 29.1093 11.5163C28.4019 12.2029 28.0482 13.1808 28.0482 14.4499V23.6255H23.3668Z" fill="black"/>
<path d="M33.8451 23.6255L33.832 6.39792H38.5135L38.5265 23.6255H33.8451ZM33.8451 5.02471V0.405722H38.5135V5.02471H33.8451Z" fill="black"/>
<path d="M47.7884 24C46.1239 24 44.6362 23.6047 43.3254 22.814C42.0146 22.0234 40.9743 20.9519 40.2045 19.5995C39.4555 18.2471 39.0809 16.749 39.0809 15.1053C39.0809 13.4408 39.4659 11.9428 40.2357 10.6112C41.0055 9.25878 42.0458 8.18726 43.3566 7.39662C44.6674 6.60598 46.1343 6.21066 47.7572 6.21066C49.0055 6.21066 50.1083 6.44993 51.0653 6.92848C52.0432 7.38622 52.8131 8.04161 53.3748 8.89467L52.657 9.83095V0H57.3384V23.6255H52.9691V20.5046L53.406 21.472C52.8235 22.3043 52.0328 22.9389 51.0341 23.3758C50.0354 23.7919 48.9535 24 47.7884 24ZM48.3501 19.7867C49.2032 19.7867 49.9522 19.5891 50.5972 19.1938C51.2422 18.7984 51.7415 18.2471 52.0953 17.5397C52.4698 16.8322 52.657 16.0208 52.657 15.1053C52.657 14.1899 52.4698 13.3784 52.0953 12.671C51.7415 11.9636 51.2422 11.4122 50.5972 11.0169C49.9522 10.6216 49.2032 10.4239 48.3501 10.4239C47.4971 10.4239 46.7272 10.632 46.0406 11.0481C45.3748 11.4434 44.8547 11.9948 44.4802 12.7022C44.1057 13.3888 43.9184 14.1899 43.9184 15.1053C43.9184 16.0208 44.1057 16.8322 44.4802 17.5397C44.8547 18.2471 45.3748 18.7984 46.0406 19.1938C46.7272 19.5891 47.4971 19.7867 48.3501 19.7867Z" fill="black"/>
</svg>
