<svg width="24" height="24" viewBox="0 0 24 24" fill="none" xmlns="http://www.w3.org/2000/svg">
<mask id="mask0_830_2095" style="mask-type:alpha" maskUnits="userSpaceOnUse" x="0" y="0" width="24" height="24">
<rect width="24" height="24" fill="#D9D9D9"/>
</mask>
<g mask="url(#mask0_830_2095)">
<path d="M10.998 17H12.998V11H10.998V17ZM11.998 9C12.2814 9 12.5189 8.90417 12.7105 8.7125C12.9022 8.52083 12.998 8.28333 12.998 8C12.998 7.71667 12.9022 7.47917 12.7105 7.2875C12.5189 7.09583 12.2814 7 11.998 7C11.7147 7 11.4772 7.09583 11.2855 7.2875C11.0939 7.47917 10.998 7.71667 10.998 8C10.998 8.28333 11.0939 8.52083 11.2855 8.7125C11.4772 8.90417 11.7147 9 11.998 9ZM11.998 22C10.6147 22 9.31471 21.7375 8.09805 21.2125C6.88138 20.6875 5.82305 19.975 4.92305 19.075C4.02305 18.175 3.31055 17.1167 2.78555 15.9C2.26055 14.6833 1.99805 13.3833 1.99805 12C1.99805 10.6167 2.26055 9.31667 2.78555 8.1C3.31055 6.88333 4.02305 5.825 4.92305 4.925C5.82305 4.025 6.88138 3.3125 8.09805 2.7875C9.31471 2.2625 10.6147 2 11.998 2C13.3814 2 14.6814 2.2625 15.898 2.7875C17.1147 3.3125 18.173 4.025 19.073 4.925C19.973 5.825 20.6855 6.88333 21.2105 8.1C21.7355 9.31667 21.998 10.6167 21.998 12C21.998 13.3833 21.7355 14.6833 21.2105 15.9C20.6855 17.1167 19.973 18.175 19.073 19.075C18.173 19.975 17.1147 20.6875 15.898 21.2125C14.6814 21.7375 13.3814 22 11.998 22ZM11.998 20C14.2314 20 16.123 19.225 17.673 17.675C19.223 16.125 19.998 14.2333 19.998 12C19.998 9.76667 19.223 7.875 17.673 6.325C16.123 4.775 14.2314 4 11.998 4C9.76471 4 7.87305 4.775 6.32305 6.325C4.77305 7.875 3.99805 9.76667 3.99805 12C3.99805 14.2333 4.77305 16.125 6.32305 17.675C7.87305 19.225 9.76471 20 11.998 20Z" fill="#4D4D4D"/>
</g>
</svg>
